<svg width="1628" height="370" viewBox="0 0 1628 370" fill="none" xmlns="http://www.w3.org/2000/svg">
<path d="M322.2 159.88C322.2 112.72 349.56 83.2 399.96 83.2H486.36V143.68H419.76C406.8 143.68 399.96 149.44 399.96 159.88V160.24H486.36V220.72H352.44V235.84H364.68C388.08 235.84 399.96 247.36 399.96 270.4V364H322.2V220.72H271.08V160.24H322.2V159.88ZM559.392 369.4C519.792 369.4 496.392 345.28 496.392 298.12V160.24H574.152V281.92C574.152 302.44 586.032 310.36 598.632 310.36C618.432 310.36 632.832 291.28 632.832 252.04V160.24H710.592V364.36H632.832V314.32H619.872C619.872 351.76 591.432 369.4 559.392 369.4ZM740.745 364V83.2H818.505V364H740.745ZM848.675 364V83.2H926.435V364H848.675ZM956.604 364V159.88H1034.36V231.16H1047.32C1047.68 178.24 1075.76 156.28 1112.12 156.28H1135.52V224.32H1108.16C1055.96 224.32 1034.36 250.6 1034.36 297.04V364H956.604ZM1217.17 369.4C1177.57 369.4 1154.17 345.28 1154.17 298.12V160.24H1231.93V281.92C1231.93 302.44 1243.81 310.36 1256.41 310.36C1276.21 310.36 1290.61 291.28 1290.61 252.04V160.24H1368.37V364.36H1290.61V314.32H1277.65C1277.65 351.76 1249.21 369.4 1217.17 369.4ZM1398.52 364V159.88H1476.28V209.92H1489.24C1489.24 172.48 1517.68 154.84 1549.72 154.84C1589.32 154.84 1612.72 178.96 1612.72 226.12V364H1534.96V242.32C1534.96 221.8 1523.08 213.88 1510.48 213.88C1490.68 213.88 1476.28 232.96 1476.28 272.2V364H1398.52Z" fill="black"/>
<rect y="156" width="208" height="208" rx="25" fill="url(#paint0_linear_134_5)"/>
<defs>
<linearGradient id="paint0_linear_134_5" x1="0" y1="156" x2="208" y2="373.36" gradientUnits="userSpaceOnUse">
<stop stop-color="#544CF8"/>
<stop offset="1" stop-color="#312D92"/>
</linearGradient>
</defs>
</svg>
